HIERARCHY
ROOT Hips
{
  OFFSET 0 0 0
  CHANNELS 6 Xposition Yposition Zposition Zrotation Yrotation Xrotation
  JOINT LeftThigh
  {
    OFFSET 8.409438 0 -5.917753
    CHANNELS 3 Zrotation Yrotation Xrotation
    JOINT LeftLeg
    {
      OFFSET 0 0 -42.358652
      CHANNELS 3 Zrotation Yrotation Xrotation
      JOINT LeftFoot
      {
        OFFSET 0 0 -39.357303
        CHANNELS 3 Zrotation Yrotation Xrotation
      }
    }
  }
  JOINT RightThigh
  {
    OFFSET -8.409438 0 -5.917753
    CHANNELS 3 Zrotation Yrotation Xrotation
    JOINT RightLeg
    {
      OFFSET 0 0 -42.358652
      CHANNELS 3 Zrotation Yrotation Xrotation
      JOINT RightFoot
      {
        OFFSET 0 0 -39.357303
        CHANNELS 3 Zrotation Yrotation Xrotation
      }
    }
  }
  JOINT SpineLow
  {
    OFFSET 0 0 4.719101
    CHANNELS 3 Zrotation Yrotation Xrotation
    JOINT SpineMid
    {
      OFFSET 0 0 12.899191
      CHANNELS 3 Zrotation Yrotation Xrotation
      JOINT Chest
      {
        OFFSET 0 0 12.899191
        CHANNELS 3 Zrotation Yrotation Xrotation
        JOINT LeftShoulder
        {
          OFFSET 7.550562 1.41573 9.438202
          CHANNELS 3 Zrotation Yrotation Xrotation
          JOINT LeftArm
          {
            OFFSET 9.155056 0 4.247191
            CHANNELS 3 Zrotation Yrotation Xrotation
            JOINT LeftForearm
            {
              OFFSET 0 0 25.771955
              CHANNELS 3 Zrotation Yrotation Xrotation
              JOINT LeftHand
              {
                OFFSET 0 0 25.197169
                CHANNELS 3 Zrotation Yrotation Xrotation
              }
            }
          }
        }
        JOINT RightShoulder
        {
          OFFSET -7.550562 1.41573 9.438202
          CHANNELS 3 Zrotation Yrotation Xrotation
          JOINT RightArm
          {
            OFFSET -9.155056 0 4.247191
            CHANNELS 3 Zrotation Yrotation Xrotation
            JOINT RightForearm
            {
              OFFSET 0 0 -25.771955
              CHANNELS 3 Zrotation Yrotation Xrotation
              JOINT RightHand
              {
                OFFSET 0 0 -25.197169
                CHANNELS 3 Zrotation Yrotation Xrotation
              }
            }
          }
        }
        JOINT Neck
        {
          OFFSET 0 0 15.101124
          CHANNELS 3 Zrotation Yrotation Xrotation
          JOINT Head
          {
            OFFSET 0 0 11.325843
            CHANNELS 3 Zrotation Yrotation Xrotation
            End Site
            {
              OFFSET 0 0 14.157303
            }
          }
        }
      }
    }
  }
}
MOTION
Frames: 18
Frame Time: 0.0
0.0  93.25843  0.0  14.925066  -9.841075  -112.387599  40.842106  -18.912345  -93.554538  3.774752  13.548521  36.248519  2.804072  -6.557952  4.897436  -3.050636  6.145374  0.393124  12.465443  10.254611  26.392429  10.041717  4.903057  2.624539  1.346123  0.884076  2.057995  3.75305  2.29914  5.674657  3.75305  2.29914  5.674657  -24.946  24.916043  5.006158  -165.490242  61.286302  -118.258057  -31.987464  15.952457  85.996054  43.360089  -34.098796  11.074725  3.332757  -12.6314  19.329621  112.539728  39.716355  51.150441  -8.694811  -21.26125  -118.091922  53.70008  6.09539  -4.22179  2.391495  4.135948  16.195071  1.684432  3.168013  12.125048  
0.0  93.25843  0.0  14.149156  -10.364661  -113.324915  41.672762  -16.143869  -92.533241  1.187742  15.004266  41.543913  2.425903  -6.571545  4.791756  -3.24409  5.514413  1.26363  13.133449  9.846922  26.859191  10.191609  4.79061  2.691718  1.354518  0.723528  2.144876  3.764157  1.855119  5.902654  3.764157  1.855119  5.902653  -24.99228  25.253183  5.062716  -165.626373  61.548661  -118.321931  -31.948841  16.062298  85.771627  43.502217  -34.1747  11.10808  3.204032  -12.633024  19.317682  111.482301  39.98034  50.534129  -8.48604  -21.424837  -118.167372  53.390685  5.937238  -4.750986  2.385097  4.097353  16.399722  1.679334  3.139739  12.278765  
0.0  93.25843  0.0  13.629794  -9.701954  -113.679771  41.732001  -13.167071  -91.689161  -1.369719  17.018722  47.396004  2.403603  -6.537518  4.725477  -3.825193  5.242501  1.747632  13.632665  9.43089  27.154523  9.962545  4.797663  2.813148  1.199146  0.702445  2.151248  3.338001  1.811156  5.914766  3.338001  1.811156  5.914766  -25.022822  25.489358  5.212588  -165.694162  62.10048  -118.28933  -32.010023  16.061891  85.396634  43.702368  -34.281824  11.136847  3.178337  -12.650623  19.405913  110.157286  40.288163  49.584968  -8.022668  -21.771503  -118.346021  53.124593  5.934696  -5.077474  2.352105  3.948664  16.561509  1.657625  3.027916  12.401224  
0.0  93.25843  0.0  13.401021  -9.125866  -113.935835  41.773513  -11.360078  -91.579536  -2.840997  19.241485  54.259781  3.232753  -6.214071  4.706627  -3.551462  4.945263  2.405021  13.596987  9.282061  27.155725  9.646201  4.820285  2.883335  1.103229  0.744975  2.171676  3.080459  1.934913  5.970207  3.080459  1.934913  5.970207  -25.171314  25.490978  5.126072  -166.159754  62.838429  -118.594471  -32.131864  15.900217  84.979178  43.954598  -34.412905  11.023694  3.101277  -12.640232  19.310222  108.824337  40.496352  48.482213  -7.359318  -22.459766  -118.958087  52.758571  5.779555  -5.058131  2.239647  3.804207  16.577487  1.577127  2.916488  12.414795  
0.0  93.25843  0.0  13.123367  -8.683064  -113.527849  41.552292  -11.02341  -92.136964  -2.255248  21.236797  61.617607  4.677955  -5.79355  4.700972  -2.81692  4.369272  2.555478  13.166904  9.391611  26.981497  9.289808  4.822874  2.886311  1.030535  0.780941  2.102932  2.883153  2.04274  5.781942  2.883153  2.04274  5.781943  -25.259369  25.402836  4.837546  -167.082303  63.556057  -119.370681  -32.23222  15.658631  84.637916  44.170203  -34.524343  10.866298  3.039482  -12.558221  19.212652  107.653018  40.611121  47.395896  -6.580989  -23.39002  -119.373211  52.196716  5.914754  -5.213525  2.203666  3.797818  16.533575  1.550571  2.910542  12.382128  
0.0  93.25843  0.0  12.498856  -8.112433  -112.51296  41.103538  -11.541302  -92.776194  -0.343916  22.915804  68.589694  6.020789  -5.266344  4.755906  -2.158265  3.444911  2.245689  12.853384  9.410326  26.818796  8.700083  4.824465  2.804274  0.933751  0.770325  1.927993  2.61261  2.029282  5.300361  2.612609  2.029282  5.300361  -25.267332  25.361151  4.755067  -167.378163  63.855419  -120.201528  -31.835908  15.782882  84.860339  44.218013  -34.62878  10.846627  2.846477  -12.452303  19.221609  106.731557  40.596413  46.382613  -5.739187  -24.506819  -119.85137  51.673961  6.061058  -5.455144  2.243289  3.883384  16.55715  1.577802  2.97594  12.399041  
0.0  93.25843  0.0  11.661871  -7.533034  -111.38607  40.756303  -12.71932  -92.796344  2.312244  24.144333  74.901744  6.626938  -4.623355  4.686245  -1.638055  2.312894  1.752209  12.484842  9.501801  26.54561  8.343912  4.836134  2.844917  0.843367  0.715898  1.736465  2.355885  1.894858  4.771968  2.355885  1.894858  4.771968  -25.339015  25.373433  4.834856  -167.789113  64.090042  -120.47626  -31.767694  15.557465  84.703593  44.256934  -34.692697  10.928062  2.661316  -12.415504  19.317738  105.907496  40.654631  45.580761  -4.739414  -25.558304  -120.357041  51.346285  6.301277  -5.563016  2.309054  4.010894  16.594304  1.623393  3.073594  12.425689  
0.0  93.25843  0.0  10.699799  -6.259072  -109.632495  40.025875  -13.263284  -92.260153  4.587918  25.117718  80.255539  6.624035  -3.758557  4.512603  -1.820982  1.258505  0.569693  12.321124  9.503533  26.331468  7.903637  4.814218  2.87601  0.629711  0.661036  1.460463  1.760834  1.767953  4.009817  1.760834  1.767953  4.009817  -25.320112  25.433146  4.95533  -167.660008  64.118797  -120.494037  -31.580104  15.382889  84.67734  44.02673  -34.760161  11.210451  2.513503  -12.29986  19.333294  105.234039  40.729074  44.866712  -3.972406  -26.277923  -120.692892  51.053036  6.520024  -5.558166  2.439343  4.161841  16.580822  1.717065  3.19039  12.413754  
0.0  93.25843  0.0  9.687458  -5.488384  -108.635504  39.787519  -14.506882  -90.71516  6.644313  26.190409  84.983135  6.39464  -2.764045  4.307149  -1.52713  0.014552  0.054269  12.11622  9.411652  26.110412  7.422309  4.850433  2.94589  0.524456  0.572386  1.31802  1.464495  1.53536  3.615496  1.464495  1.53536  3.615496  -25.501597  25.394694  5.005026  -167.771676  64.154318  -120.390303  -31.602273  15.030094  84.510983  43.897648  -34.763826  11.400249  2.429387  -12.292994  19.304154  104.554405  40.973613  44.284216  -3.669242  -26.657021  -120.758934  50.843124  6.691773  -5.399698  2.528239  4.200953  16.480785  1.783354  3.221718  12.337904  
0.0  93.25843  0.0  8.915214  -4.213539  -107.421842  39.006376  -15.38047  -88.759216  8.661991  27.425618  89.40776  6.311434  -1.754349  4.043251  -2.112429  -0.692555  -0.795612  12.090493  9.255051  25.826282  7.057724  4.908836  3.024403  0.374457  0.528159  1.164621  1.048849  1.425213  3.191922  1.048849  1.425213  3.191922  -25.695705  25.382797  4.961723  -167.999441  64.18844  -120.435221  -31.590952  14.744145  84.429343  43.730944  -34.736241  11.58333  2.24685  -12.179713  19.175105  104.091849  41.26638  43.785755  -3.826768  -26.826913  -120.622564  50.70774  6.834067  -5.150492  2.421947  4.256046  16.215026  1.703896  3.259055  12.139017  
0.0  93.25843  0.0  8.10037  -3.25313  -106.505417  38.112024  -16.764088  -86.339765  10.891797  28.63134  93.589722  6.504307  -0.813459  3.77859  -2.843011  -1.363457  -1.437654  12.150569  9.08378  25.516056  6.841679  4.861275  3.068294  0.272302  0.474439  1.05113  0.764857  1.284697  2.878794  0.764857  1.284697  2.878793  -25.855027  25.280829  4.971614  -168.432373  64.233287  -120.564789  -31.689652  14.366753  84.160087  43.652913  -34.709646  11.719035  2.21002  -12.167644  19.17113  103.714323  41.667249  43.385881  -4.254305  -26.960008  -120.385604  50.611729  6.952161  -4.911269  2.464969  4.110756  16.0039  1.741497  3.15022  11.981411  
0.0  93.25843  0.0  7.370998  -2.290322  -105.609348  36.833336  -18.043669  -83.507564  13.064299  29.589555  97.483359  6.876731  0.036695  3.570945  -3.782384  -1.800406  -2.139351  12.228281  8.848939  25.162281  6.533842  4.820841  3.041002  0.200974  0.425855  0.952166  0.566062  1.155904  2.606413  0.566062  1.155904  2.606413  -25.696785  25.258696  5.070983  -168.32456  64.334884  -121.126174  -31.209303  14.906998  84.751927  43.655645  -34.71064  11.814773  1.746812  -11.975556  18.88986  103.47884  41.96368  42.791702  -4.663455  -27.173909  -120.144074  50.486549  7.002012  -4.756919  2.27222  3.974641  15.695577  1.602475  3.04175  11.752363  
0.0  93.25843  0.0  6.708898  -1.445544  -104.81414  35.266266  -18.969337  -80.154957  14.684516  30.018531  100.940043  7.255064  0.852851  3.410512  -4.566472  -2.185316  -2.782299  12.172316  8.517291  24.808671  6.467972  4.754658  3.098767  0.148339  0.383098  0.862983  0.419112  1.041708  2.361399  0.419112  1.041708  2.361398  -25.837755  25.135308  5.048958  -168.998595  64.413302  -121.50175  -31.198717  14.419649  84.351328  43.733661  -34.721977  11.866449  1.688404  -11.942359  18.944394  103.021586  42.540432  42.257688  -5.106715  -27.461888  -119.886581  50.467025  7.072796  -4.602718  2.156898  3.726283  15.439411  1.523968  2.851392  11.562487  
0.0  93.25843  0.0  5.988985  -0.375232  -103.854124  33.295048  -19.267451  -76.594555  15.454708  29.817124  103.90832  7.498601  1.680864  3.273117  -5.435475  -2.662966  -3.653102  11.692575  8.303042  24.339634  6.581925  4.708207  3.227127  0.077186  0.33566  0.759002  0.221504  0.914966  2.075846  0.221504  0.914966  2.075846  -25.714158  25.108111  5.091936  -170.008454  64.608409  -122.029951  -31.031511  13.853352  83.964336  43.889946  -34.756369  11.844986  1.457453  -11.845882  18.8762  102.505079  43.076253  41.498019  -6.199188  -27.72806  -119.427435  50.043229  6.693935  -4.908947  1.895714  3.495102  15.127704  1.335676  2.670216  11.331542  
0.0  93.25843  0.0  5.176057  0.365176  -103.207259  31.540939  -19.408643  -72.612454  15.397272  29.007711  106.39609  7.560271  2.482305  3.14918  -5.655797  -3.363201  -4.157859  11.19864  8.079045  24.019646  6.39372  4.665118  3.284555  0.063813  0.252547  0.700493  0.181731  0.688397  1.915455  0.181731  0.688397  1.915455  -25.921103  25.012687  5.07537  -170.855314  64.587043  -122.640137  -30.818071  13.1647  83.516541  44.070942  -34.778148  11.784835  1.371244  -11.822123  18.941986  101.738739  43.776135  40.695876  -6.523811  -28.091511  -119.213699  50.113637  6.713246  -4.965973  1.618488  3.276448  14.842367  1.134653  2.498407  11.120152  
0.0  93.25843  0.0  4.370248  0.959411  -102.646604  29.874848  -19.311962  -68.205977  14.629009  27.610669  108.154679  7.451764  3.221081  3.080612  -5.531917  -4.167911  -4.627078  10.325107  8.025952  23.617086  6.291593  4.640437  3.388051  0.075511  0.16322  0.652574  0.210791  0.44407  1.784279  0.210791  0.44407  1.784279  -26.010363  24.937069  5.11797  -171.902443  64.455813  -123.452706  -30.563449  12.495144  83.061363  44.292691  -34.767816  11.713274  1.270971  -11.806198  19.040732  100.885839  44.539451  39.763459  -7.210825  -28.340125  -118.809944  50.084461  6.571064  -5.22782  1.284276  3.097624  14.548389  0.889744  2.355384  10.902178  
0.0  93.25843  0.0  3.545039  1.664927  -102.098113  28.161414  -19.210774  -63.466823  13.413222  25.847749  109.123079  7.085595  3.884024  3.068985  -5.398518  -4.966926  -5.023999  9.585255  7.940008  23.299001  6.143745  4.579632  3.449898  0.069986  0.065286  0.611532  0.192937  0.176669  1.671754  0.192937  0.176669  1.671754  -26.156912  24.808519  5.124738  -173.001604  64.092806  -124.41213  -30.318784  11.84589  82.574309  44.597055  -34.711829  11.640628  1.183575  -11.818153  19.106448  99.998238  45.344011  38.783397  -7.854769  -28.497637  -118.367605  50.270544  6.509007  -5.389272  0.974523  2.951533  14.2497  0.662264  2.23782  10.680235  
0.0  93.25843  0.0  2.810182  2.419478  -101.725877  26.460332  -19.338677  -58.375865  12.091841  24.1343  109.458965  6.602665  4.4856  3.094155  -5.531096  -5.635147  -5.303005  8.523425  7.788651  22.707624  6.361433  4.622356  3.671537  0.062581  -0.021963  0.591359  0.17051  -0.06156  1.616362  0.17051  -0.06156  1.616362  -26.344348  24.728175  5.077287  -174.354221  63.605624  -125.716721  -30.096998  11.129429  82.056204  44.90754  -34.606564  11.585348  1.061678  -11.930896  19.157102  99.133112  46.156991  37.80019  -9.344158  -28.418015  -117.387945  50.127247  6.220944  -5.87642  0.648099  2.848024  13.978422  0.421027  2.152179  10.478649  
